<svg width="40" height="41" viewBox="0 0 40 41" fill="none" xmlns="http://www.w3.org/2000/svg">
<g clip-path="url(#clip0_9439_20775)">
<path d="M40 20.7422C40 16.7866 38.827 12.9198 36.6294 9.63079C34.4318 6.34181 31.3082 3.77836 27.6537 2.26461C23.9992 0.750853 19.9778 0.354786 16.0982 1.12649C12.2186 1.8982 8.65492 3.80301 5.85787 6.60006C3.06082 9.39711 1.15601 12.9608 0.384303 16.8404C-0.387401 20.72 0.00866572 24.7413 1.52242 28.3959C3.03617 32.0504 5.59962 35.174 8.8886 37.3716C12.1776 39.5692 16.0444 40.7422 20 40.7422C25.3026 40.7365 30.3863 38.6275 34.1358 34.878C37.8853 31.1285 39.9943 26.0448 40 20.7422ZM14.31 23.0989C13.6851 22.4738 13.3341 21.6261 13.3341 20.7422C13.3341 19.8583 13.6851 19.0106 14.31 18.3855L22.0983 10.5972L24.455 12.9539L16.6667 20.7422L24.5183 28.5955L22.1667 30.9522L14.31 23.0989Z" fill="white"/>
</g>
<defs>
<clipPath id="clip0_9439_20775">
<rect width="40" height="40" fill="white" transform="translate(0 0.742188)"/>
</clipPath>
</defs>
</svg>
