<svg width="40" height="41" viewBox="0 0 40 41" fill="none" xmlns="http://www.w3.org/2000/svg">
<g clip-path="url(#clip0_9439_20773)">
<path d="M-9.37785e-06 20.7422C-9.03204e-06 24.6978 1.17297 28.5646 3.3706 31.8536C5.56823 35.1426 8.6918 37.706 12.3463 39.2198C16.0008 40.7335 20.0222 41.1296 23.9018 40.3579C27.7814 39.5862 31.3451 37.6814 34.1421 34.8843C36.9392 32.0873 38.844 28.5236 39.6157 24.644C40.3874 20.7644 39.9913 16.743 38.4776 13.0885C36.9638 9.43399 34.4004 6.31042 31.1114 4.11279C27.8224 1.91516 23.9556 0.742181 20 0.742182C14.6974 0.747916 9.61367 2.85689 5.86419 6.60638C2.1147 10.3559 0.00572365 15.4396 -9.37785e-06 20.7422ZM25.69 18.3855C26.3149 19.0106 26.6659 19.8583 26.6659 20.7422C26.6659 21.6261 26.3149 22.4738 25.69 23.0988L17.9017 30.8872L15.545 28.5305L23.3333 20.7422L15.4817 12.8888L17.8333 10.5322L25.69 18.3855Z" fill="white"/>
</g>
<defs>
<clipPath id="clip0_9439_20773">
<rect width="40" height="40" fill="white" transform="translate(40 40.7422) rotate(180)"/>
</clipPath>
</defs>
</svg>
